<?xml version="1.0" encoding="UTF-8" standalone="no"?>
<svg
   xmlns:dc="http://purl.org/dc/elements/1.1/"
   xmlns:cc="http://creativecommons.org/ns#"
   xmlns:rdf="http://www.w3.org/1999/02/22-rdf-syntax-ns#"
   xmlns:svg="http://www.w3.org/2000/svg"
   xmlns="http://www.w3.org/2000/svg"
   version="1.1"
   id="svg2"
   xml:space="preserve"
   width="45.103001"
   height="15.082667"
   viewBox="0 0 45.103001 15.082667"><metadata
     id="metadata8"><rdf:RDF><cc:Work
         rdf:about=""><dc:format>image/svg+xml</dc:format><dc:type
           rdf:resource="http://purl.org/dc/dcmitype/StillImage" /><dc:title></dc:title></cc:Work></rdf:RDF></metadata><defs
     id="defs6" /><g
     id="g10"
     transform="matrix(1.3333333,0,0,-1.3333333,0,15.082667)"><g
       id="g34"
       transform="translate(3.135,2.211)" /><g
       id="g36"
       transform="translate(11.312,5.656)" /><g
       id="g183"><path
         d="m 0,0 c 0,3.12367 -2.53217,5.65585 -5.65585,5.65585 -3.12369,0 -5.65587,-2.53218 -5.65587,-5.65585 0,-3.12367 2.53218,-5.65585 5.65587,-5.65585 C -2.53217,-5.65585 0,-3.12367 0,0 Z"
         style="fill:#55aa00;fill-opacity:1;fill-rule:nonzero;stroke:none"
         id="path22"
         transform="translate(11.312,5.656)" /><g
         aria-label="L"
         transform="matrix(1,0,0,-1,3.135,2.211)"
         id="text32"
         style="font-style:italic;font-variant:normal;font-weight:bold;font-size:9.9626px;font-family:'Fira Sans';-inkscape-font-specification:FiraSans-BoldItalic;writing-mode:lr-tb;fill:#ffffff;fill-opacity:1;fill-rule:nonzero;stroke:none"><path
           d="M 2.8393409,-6.9040816 H 1.2353624 L 0.26899019,0 H 4.3636187 l 0.3387284,-1.295138 h -2.640089 z"
           id="path171" /></g><g
         aria-label="¨
andr"
         transform="scale(1,-1)"
         id="text50"
         style="font-style:italic;font-variant:normal;font-weight:bold;font-size:9.9626px;font-family:'Fira Sans';-inkscape-font-specification:FiraSans-BoldItalic;writing-mode:lr-tb;fill:#000000;fill-opacity:1;fill-rule:nonzero;stroke:none"><path
           d="m 14.591755,-8.218989 c 0.49813,0 0.896634,-0.3686162 0.896634,-0.8667462 0,-0.398504 -0.288916,-0.697382 -0.72727,-0.697382 -0.508093,0 -0.896634,0.3686162 -0.896634,0.8767088 0,0.398504 0.278953,0.6874194 0.72727,0.6874194 z m 2.26151,0 c 0.508092,0 0.906596,-0.3686162 0.906596,-0.8667462 0,-0.398504 -0.288915,-0.697382 -0.727269,-0.697382 -0.508093,0 -0.896634,0.3686162 -0.896634,0.8767088 0,0.398504 0.278952,0.6874194 0.717307,0.6874194 z"
           id="path160" /><path
           d="m 15.595658,-7.1925047 c -2.231623,0 -3.028631,2.0124451 -3.028631,3.5267603 0,1.2752128 0.597756,2.1021086 1.713567,2.1021086 0.707345,0 1.205475,-0.3785788 1.574091,-0.9065966 0.159402,0.5678682 0.647569,0.8268958 1.2254,0.8767088 l 0.448317,-1.0161852 c -0.288916,-0.1095886 -0.298878,-0.2889154 -0.259028,-0.6376064 l 0.488168,-3.3872839 c -0.68742,-0.3785788 -1.434615,-0.5579056 -2.161884,-0.5579056 z m -0.03985,1.1158112 c 0.22914,0 0.388542,0.029888 0.587794,0.099626 l -0.368617,2.5205377 c -0.298878,0.4582796 -0.627643,0.7372324 -1.006222,0.7372324 -0.348691,0 -0.597756,-0.2092146 -0.597756,-0.9564096 0,-1.0261478 0.358653,-2.4009865 1.384801,-2.4009865 z"
           id="path162" /><path
           d="m 22.101236,-7.1925047 c -0.707345,0 -1.354914,0.4383544 -1.803231,1.095886 l 0.02989,-0.9265218 H 18.982942 L 18.245709,-1.733 h 1.544203 l 0.41843,-2.9090792 c 0.368616,-0.7471949 0.76712,-1.2652501 1.165624,-1.2652501 0.22914,0 0.388541,0.1394764 0.30884,0.6774567 L 21.194639,-1.733 h 1.544203 l 0.528018,-3.8256383 c 0.149439,-1.0261478 -0.318803,-1.6338664 -1.165624,-1.6338664 z"
           id="path164" /><path
           d="m 28.028982,-9.2846507 -0.358654,2.6002386 c -0.26899,-0.298878 -0.677456,-0.5080926 -1.215437,-0.5080926 -1.80323,0 -2.5305,2.0522955 -2.5305,3.4968725 0,1.3250258 0.557905,2.1319964 1.663754,2.1319964 0.717307,0 1.235362,-0.4184292 1.574091,-0.9265218 l -0.01,0.7571576 h 1.374839 l 1.03611,-7.3922491 z m -1.235362,3.237845 c 0.318803,0 0.53798,0.1295138 0.737232,0.3785788 l -0.278953,1.9725947 c -0.328766,0.5280178 -0.697382,0.9763348 -1.145699,0.9763348 -0.338728,0 -0.577831,-0.2191772 -0.577831,-0.9663722 0,-0.8767088 0.278953,-2.3611361 1.265251,-2.3611361 z"
           id="path166" /><path
           d="m 33.299197,-7.1725795 c -0.577831,0 -1.125774,0.3885414 -1.49439,1.1357364 l 0.01993,-0.9862974 H 30.479781 L 29.742549,-1.733 h 1.544203 l 0.348691,-2.4507996 c 0.288915,-0.8368584 0.647569,-1.4645021 1.3051,-1.4645021 0.159402,0 0.278953,0.029888 0.438355,0.069738 l 0.448317,-1.5143152 c -0.169364,-0.049813 -0.318803,-0.079701 -0.528018,-0.079701 z"
           id="path168" /></g></g><g
       id="g52"
       transform="translate(12.308,1.733)" /><g
       id="g54"
       transform="translate(11.312,5.656)" /></g></svg>
